<?xml version="1.0" standalone="no"?>
<!DOCTYPE svg PUBLIC "-//W3C//DTD SVG 20010904//EN"
 "http://www.w3.org/TR/2001/REC-SVG-20010904/DTD/svg10.dtd">
<svg version="1.0" xmlns="http://www.w3.org/2000/svg"
 width="900.000000pt" height="520.000000pt" viewBox="0 0 900.000000 520.000000"
 preserveAspectRatio="xMidYMid meet">

<g transform="translate(0.000000,520.000000) scale(0.100000,-0.100000)"
fill="#000000" stroke="none">
<path d="M5325 5083 c-480 -27 -1025 -213 -1517 -520 -144 -89 -361 -243 -438
-310 -21 -18 -41 -33 -46 -33 -5 -1 -108 -101 -230 -223 -142 -143 -257 -269
-322 -354 -56 -72 -102 -136 -102 -142 0 -6 104 -10 292 -11 217 0 296 -4 305
-13 10 -9 -1 -52 -53 -202 -35 -105 -72 -196 -81 -202 -13 -10 -104 -13 -374
-13 -357 0 -358 0 -383 -22 -23 -21 -186 -335 -186 -358 0 -6 163 -10 429 -10
384 0 431 -2 446 -16 9 -9 13 -24 10 -32 -3 -9 -31 -90 -62 -180 -31 -90 -64
-173 -74 -185 -17 -22 -19 -22 -444 -23 -283 -1 -430 -5 -437 -12 -6 -6 -24
-87 -41 -179 -26 -147 -30 -192 -30 -363 -1 -182 1 -205 31 -349 62 -296 163
-501 339 -691 215 -234 525 -379 904 -426 176 -22 469 -15 649 16 477 80 933
267 1375 563 253 169 382 276 621 513 127 126 242 245 255 266 13 20 52 70 87
112 73 89 102 134 102 159 0 20 37 18 -412 17 -213 -1 -334 3 -347 10 -19 10
-19 13 -5 58 8 26 35 116 59 201 25 85 51 159 58 163 6 5 218 8 469 6 441 -2
458 -1 478 17 28 25 182 345 176 362 -4 10 -107 13 -511 13 -456 0 -506 2
-512 16 -10 27 86 376 109 397 19 16 58 17 522 17 397 0 506 3 520 13 25 18
44 130 56 322 28 456 -62 794 -291 1095 -117 154 -254 262 -468 370 -251 126
-573 182 -926 163z m980 -989 c8 -9 14 -24 11 -33 -3 -9 -24 -104 -47 -211
-22 -107 -50 -229 -60 -270 -11 -41 -20 -80 -21 -87 -1 -8 -92 -12 -352 -12
-400 -1 -387 1 -418 -87 -23 -66 -204 -744 -289 -1081 -37 -149 -82 -307 -98
-350 -50 -129 -123 -236 -240 -354 -209 -208 -453 -335 -768 -400 -102 -21
-139 -23 -703 -29 -327 -3 -605 -2 -617 2 -13 4 -23 15 -23 25 0 20 145 571
162 615 14 36 27 38 399 36 l316 -2 47 28 c82 48 90 69 181 459 139 591 222
921 254 1003 131 339 511 639 924 729 129 28 235 32 784 34 485 1 543 -1 558
-15z"/>
</g>
</svg>
